<?xml version="1.0" encoding="utf-8"?>
<!-- Generator: Adobe Illustrator 26.1.0, SVG Export Plug-In . SVG Version: 6.00 Build 0)  -->
<svg version="1.1" xmlns="http://www.w3.org/2000/svg" xmlns:xlink="http://www.w3.org/1999/xlink" x="0px" y="0px"
	 viewBox="0 0 900 600" style="enable-background:new 0 0 900 600;" xml:space="preserve">
<style type="text/css">
	.st0{display:none;}
	.st1{display:inline;}
	.st2{fill:#2ABFD8;}
	.st3{fill:#FF765C;}
	.st4{fill:none;stroke:#2ABFD8;stroke-width:9;stroke-linecap:round;stroke-linejoin:round;}
	.st5{fill:none;stroke:#2ABFD8;stroke-width:9;stroke-linecap:round;stroke-linejoin:round;stroke-dasharray:4.9746,14.9237;}
	.st6{fill:none;stroke:#2ABFD8;stroke-width:9;stroke-linecap:round;stroke-linejoin:round;stroke-dasharray:5.0483,15.1448;}
	.st7{display:inline;fill:none;}
	.st8{display:inline;fill:#FF765C;}
	.st9{font-family:'Aptly';}
	.st10{font-size:163px;}
	.st11{fill:#31CD83;}
	.st12{fill:none;stroke:#FF765C;stroke-width:7;stroke-linecap:round;stroke-linejoin:round;}
	.st13{fill:none;stroke:#FF765C;stroke-width:7;stroke-linecap:round;stroke-linejoin:round;stroke-dasharray:11.0931,11.0931;}
	.st14{fill:none;stroke:#FF765C;stroke-width:7;stroke-linecap:round;stroke-linejoin:round;stroke-dasharray:11.165,11.165;}

		.st15{display:inline;fill:none;stroke:#FF765C;stroke-width:7;stroke-linecap:round;stroke-linejoin:round;stroke-miterlimit:10;stroke-dasharray:12,12;}

		.st16{display:inline;fill:none;stroke:#FF765C;stroke-width:7;stroke-linecap:round;stroke-linejoin:round;stroke-miterlimit:10;stroke-dasharray:12;}
	.st17{clip-path:url(#SVGID_00000181055689745988600500000012095025131323958964_);fill:#2ABFD8;}
	.st18{display:inline;fill:none;stroke:#31CD83;stroke-width:12;stroke-linecap:round;stroke-linejoin:round;stroke-miterlimit:10;}
	.st19{fill:none;stroke:#FF765C;stroke-width:8;stroke-linecap:round;stroke-linejoin:round;stroke-dasharray:4.0105,20.0525;}
	.st20{display:inline;fill:none;stroke:#FF765C;stroke-width:12;stroke-linecap:round;stroke-linejoin:round;stroke-miterlimit:10;}
	.st21{display:inline;fill:none;stroke:#2ABFD8;stroke-width:12;stroke-linecap:round;stroke-linejoin:round;stroke-miterlimit:10;}
	.st22{clip-path:url(#SVGID_00000061457564615231164910000014655363436839785380_);fill:#2ABFD8;}
</style>
<g id="Layer_8" class="st0">
	<rect class="st1" width="900" height="600"/>
</g>
<g id="Layer_1">
	<g>
		<path class="st2" d="M214.11,276.27h-88.7c-5.78,0-10.48-5.08-10.48-11.33v-17.48c0-2.89-2.16-5.23-4.83-5.23
			c-2.67,0-4.83,2.34-4.83,5.23v17.48c0,12.02,9.04,21.8,20.15,21.8h0.22v2.86c0,1.93,1.69,3.49,3.76,3.49
			c2.08,0,3.76-1.56,3.76-3.49v-2.86h80.95c2.67,0,4.83-2.34,4.83-5.23C218.94,278.61,216.78,276.27,214.11,276.27z"/>
		<path class="st2" d="M133.16,307.71v-7.42c0-1.93-1.69-3.49-3.76-3.49c-2.08,0-3.76,1.56-3.76,3.49v7.42
			c0,1.33,0.14,2.66,0.42,3.95c0.36,1.66,1.93,2.8,3.69,2.8c0.25,0,0.5-0.02,0.75-0.07c2.04-0.38,3.36-2.22,2.95-4.11
			C133.25,309.44,133.16,308.58,133.16,307.71z"/>
	</g>
	<g>
		<path class="st2" d="M212.52,374.03H166.4c-10.87,0-19.72-9.78-19.72-21.8v-27.96c0-1.74,4.12-2.49,6.73-2.49
			c2.61,0,2.73-0.66,2.73,2.23v28.21c0,6.25,4.6,11.33,10.25,11.33h46.12c2.61,0,4.73,2.34,4.73,5.23S215.13,374.03,212.52,374.03z"
			/>
	</g>
	<g>
		<path class="st2" d="M249.51,298.02h-6.33c-7.43,0-13.47-6.04-13.47-13.47v-6.33c0-7.43,6.04-13.47,13.47-13.47h6.33
			c7.43,0,13.47,6.04,13.47,13.47v6.33C262.98,291.98,256.94,298.02,249.51,298.02z M243.18,276.75c-0.81,0-1.47,0.66-1.47,1.47
			v6.33c0,0.81,0.66,1.47,1.47,1.47h6.33c0.81,0,1.47-0.66,1.47-1.47v-6.33c0-0.81-0.66-1.47-1.47-1.47H243.18z"/>
	</g>
	<g>
		<path class="st3" d="M251.34,340.49h-5.84c-2.21,0-4-1.79-4-4s1.79-4,4-4h3.99c0.09,0,0.13,0,0.19,0h1.67c2.21,0,4,1.79,4,4
			S253.55,340.49,251.34,340.49z M235.71,327.02c-2.21,0-4-1.79-4-4v-0.33c0-1.89,0.47-3.76,1.36-5.42
			c1.05-1.95,3.47-2.68,5.42-1.63c1.95,1.04,2.68,3.47,1.63,5.42c-0.27,0.5-0.41,1.06-0.41,1.64v0.33
			C239.71,325.23,237.92,327.02,235.71,327.02z M256.7,324.66c-1.75,0-3.35-1.15-3.85-2.91c-0.17-0.6-0.5-1.14-0.95-1.57
			c-1.6-1.52-1.67-4.05-0.15-5.65c1.52-1.6,4.05-1.67,5.65-0.15c1.5,1.42,2.59,3.22,3.15,5.21c0.6,2.13-0.64,4.34-2.76,4.94
			C257.42,324.61,257.06,324.66,256.7,324.66z"/>
	</g>
	<g>
		<path class="st2" d="M249.51,389.59h-6.33c-7.43,0-13.47-6.04-13.47-13.47v-6.33c0-7.43,6.04-13.47,13.47-13.47h6.33
			c7.43,0,13.47,6.04,13.47,13.47v6.33C262.98,383.55,256.94,389.59,249.51,389.59z M243.18,368.32c-0.81,0-1.47,0.66-1.47,1.47
			v6.33c0,0.81,0.66,1.47,1.47,1.47h6.33c0.81,0,1.47-0.66,1.47-1.47v-6.33c0-0.81-0.66-1.47-1.47-1.47H243.18z"/>
	</g>
	<g>
		<path class="st2" d="M113.48,235.37h-6.33c-7.43,0-13.47-6.04-13.47-13.47v-6.33c0-7.43,6.04-13.47,13.47-13.47h6.33
			c7.43,0,13.47,6.04,13.47,13.47v6.33C126.95,229.33,120.91,235.37,113.48,235.37z M107.15,214.1c-0.81,0-1.47,0.66-1.47,1.47v6.33
			c0,0.81,0.66,1.47,1.47,1.47h6.33c0.81,0,1.47-0.66,1.47-1.47v-6.33c0-0.81-0.66-1.47-1.47-1.47H107.15z"/>
	</g>
	<g>
		<g>
			<path class="st3" d="M199.36,327.77h-9.89c-1.78,0-3.22-1.56-3.22-3.49s1.44-3.49,3.22-3.49h9.89c1.78,0,3.22,1.56,3.22,3.49
				S201.14,327.77,199.36,327.77z M179.58,327.77h-9.89c-1.78,0-3.22-1.56-3.22-3.49s1.44-3.49,3.22-3.49h9.89
				c1.78,0,3.22,1.56,3.22,3.49S181.36,327.77,179.58,327.77z M159.79,327.77h-9.89c-1.78,0-3.22-1.56-3.22-3.49
				s1.44-3.49,3.22-3.49h9.89c1.78,0,3.22,1.56,3.22,3.49S161.57,327.77,159.79,327.77z M140.01,327.71c-0.09,0-0.17,0-0.26-0.01
				c-4.03-0.35-7.77-2.08-10.82-5.01c-1.33-1.28-1.45-3.48-0.27-4.92c1.18-1.44,3.22-1.57,4.55-0.29c1.99,1.91,4.42,3.04,7.05,3.27
				c1.77,0.15,3.1,1.83,2.96,3.75C143.09,326.33,141.68,327.71,140.01,327.71z"/>
		</g>
		<g>
			<path class="st3" d="M214.11,327.77h-4.83c-1.78,0-3.22-1.56-3.22-3.49s1.44-3.49,3.22-3.49h4.83c1.78,0,3.22,1.56,3.22,3.49
				S215.89,327.77,214.11,327.77z"/>
		</g>
	</g>
	<g>
		<path class="st3" d="M413,239.76c-2.54,0-4.53,1.91-4.53,4.35v46.02c-7.74-9.53-19.4-15.17-32.61-15.17
			c-24.65,0-43.95,19.92-43.95,45.36c0,13.13,4.33,25.02,12.2,33.48c7.97,8.57,19.25,13.29,31.75,13.29
			c14.75,0,25.7-5.97,32.61-14.09v8.16c0,2.88,2.02,5.06,4.7,5.06h0.18c2.68,0,4.7-2.17,4.7-5.06v-115.1
			C418.05,239.94,413.51,239.76,413,239.76z M375.86,357.68c-20.56,0-34.37-15.01-34.37-37.36c0-20.16,15.1-35.95,34.37-35.95
			c15.82,0,27.68,9.39,32.61,25.79v17.55C408.47,342.24,397.04,357.68,375.86,357.68z"/>
		<g>
			<path class="st2" d="M474.07,274.96c-24.65,0-43.95,20.16-43.95,45.89c0,26.79,18.93,46.24,45.01,46.24
				c15.19,0,24.28-5.9,29.23-10.85c5.98-5.98,8.21-11.93,8.21-14.27c0-2.83-2.22-5.06-5.06-5.06c-1.78,0-3.35,1.18-3.84,2.89
				c-2.38,8.25-11.28,17.88-28.54,17.88c-20.53,0-34.97-14.68-35.41-35.82h69.38c3.13,0,5.41-2.35,5.41-5.58v-0.18
				C514.5,292.26,497.5,274.96,474.07,274.96z M474.07,284.37c16.66,0,29.09,11.59,30.82,28.08h-64.36
				C443.98,295.94,457.49,284.37,474.07,284.37z"/>
			<path class="st2" d="M568.4,274.96c-13.32,0-24.87,5.57-32.61,15.19v-8.02c0-5.83-3.87-6.29-5.06-6.29
				c-2.54,0-4.53,1.91-4.53,4.35v113.17c0,2.88,2.02,5.06,4.7,5.06h0.18c2.68,0,4.7-2.17,4.7-5.06v-40.2
				c6.88,8.04,17.81,13.93,32.61,13.93c12.5,0,23.78-4.72,31.75-13.29c7.87-8.46,12.2-20.35,12.2-33.48
				C612.35,294.88,593.05,274.96,568.4,274.96z M568.4,357.68c-21.18,0-32.61-15.44-32.61-29.97v-17.55
				c4.93-16.4,16.79-25.79,32.61-25.79c19.27,0,34.37,15.79,34.37,35.95C602.77,342.32,588.64,357.68,568.4,357.68z"/>
			<path class="st2" d="M663.62,348.17c-1.59,0-3.03,0.94-3.67,2.4c-1.42,3.24-4.5,7.11-11.12,7.11c-6.07,0-12.54-1.43-12.54-18.53
				v-53.73h23.98c3.47,0,5.06-2.44,5.06-4.7v-0.18c0-2.25-1.74-4.53-5.06-4.53h-23.98v-16.06c0-2.88-2.02-5.06-4.7-5.06h-0.35
				c-2.58,0-4.53,2.17-4.53,5.06v16.06h-11.84c-4.14,0-5.23,2.96-5.23,4.53v0.18c0,1.75,1.1,4.7,5.23,4.7h11.84v53.73
				c0,18.54,7.45,27.93,22.13,27.93c6.29,0,11.11-1.88,15.15-5.92c2.6-2.59,4.34-5.85,4.34-8.11
				C668.32,350.36,666.21,348.17,663.62,348.17z"/>
			<path class="st2" d="M704.63,274.96c-4.72,0-13.7,1.22-20.46,9.43v-2.26c0-5.83-3.87-6.29-5.06-6.29c-2.54,0-4.53,1.91-4.53,4.35
				v80.96c0,2.88,2.02,5.06,4.7,5.06h0.18c2.68,0,4.7-2.17,4.7-5.06v-43.12c0-20.45,8.03-33.66,20.46-33.66
				c2.98,0,6.6,1.29,7.36,1.96c0.73,0.66,1.69,1.03,2.68,1.03c2.23,0,4.53-1.83,4.53-4.88
				C719.19,275.52,704.77,274.96,704.63,274.96z"/>
			<path class="st2" d="M797.92,275.77c-0.95-0.19-4.21-0.48-6.16,4.08c-0.42,0.97-0.86,1.94-1.31,2.92
				c-0.69,1.51-1.41,3.08-2.04,4.65l-24.96,58.56l-27.39-59.72c-0.26-0.57-0.51-1.14-0.76-1.7c-0.75-1.71-1.53-3.47-2.56-5.12
				c-2.62-5.01-6.46-3.61-6.89-3.43c-2.12,0.88-3.22,3.27-2.5,5.44c0.05,0.14,0.1,0.27,0.16,0.41l34.61,75.36
				c0.08,0.21,0.17,0.41,0.28,0.6l-15.03,34.46c-0.22,0.5-0.33,1.05-0.33,1.6c0,2.5,2.19,4.53,4.88,4.53c2.15,0,3.97-1.37,4.78-3.6
				l48.52-113.04c0.21-0.5,0.32-1.04,0.32-1.58C801.55,278.06,800.03,276.2,797.92,275.77z"/>
		</g>
	</g>
</g>
<g id="Layer_14" class="st0">
	<g class="st1">
		<g>
			<line class="st4" x1="413.47" y1="238.11" x2="413.47" y2="240.61"/>
			<line class="st5" x1="413.47" y1="255.54" x2="413.47" y2="347.57"/>
			<line class="st4" x1="413.47" y1="355.03" x2="413.47" y2="357.53"/>
		</g>
	</g>
	<g class="st1">
		<g>
			<path class="st4" d="M413.47,333.25c-0.34,0.76-0.7,1.51-1.09,2.25"/>
			<path class="st6" d="M403.16,347.42c-7.05,6.3-16.21,10.11-26.22,10.11c-22.24,0-40.27-18.77-40.27-41.93
				c0-23.16,18.03-41.93,40.27-41.93c12.76,0,24.13,6.18,31.51,15.82"/>
			<path class="st4" d="M412.48,295.89c0.38,0.74,0.74,1.49,1.07,2.26"/>
		</g>
	</g>
</g>
<g id="Layer_13" class="st0">
</g>
<g id="Layer_7" class="st0">
</g>
<g id="Layer_12" class="st0">
	<rect x="410.2" y="234.26" class="st7" width="461.6" height="189.73"/>
	<text transform="matrix(1 0 0 1 410.2001 368.7354)" class="st8 st9 st10">Deptry</text>
</g>
<g id="Layer_5" class="st0">
	<g class="st1">
		<g>
			<path class="st2" d="M386.56,383.08h-7.64c-2.21,0-4-1.79-4-4v-137.2c0-2.21,1.79-4,4-4h7.64c27.78,0,38.1,19.68,38.1,72.6
				C424.66,363.4,414.33,383.08,386.56,383.08z M385.27,373.12h1.29c14.62,0,27.75-4.79,27.75-62.64
				c0-57.85-13.13-62.64-27.75-62.64h-1.29V373.12z"/>
		</g>
		<g>
			<path class="st2" d="M474.56,383.08h-34.5c-2.21,0-4-1.79-4-4v-137.2c0-2.21,1.79-4,4-4h34.5c2.21,0,4,1.79,4,4v1.96
				c0,2.21-1.79,4-4,4h-28.14v52.37h23.24c2.21,0,4,1.79,4,4v1.96c0,2.21-1.79,4-4,4h-23.24v62.95h28.14c2.21,0,4,1.79,4,4v1.96
				C478.56,381.29,476.77,383.08,474.56,383.08z"/>
		</g>
		<g>
			<path class="st2" d="M493.77,383.08h-1.37c-2.21,0-4-1.79-4-4v-137.2c0-2.21,1.79-4,4-4h8.82c20.47,0,30.85,13.74,30.85,40.85
				s-10.38,40.85-30.85,40.85h-2.47v58.52c0,1.06-0.42,2.08-1.17,2.83l-0.98,0.98C495.85,382.66,494.83,383.08,493.77,383.08z
				 M498.75,309.62h2.47c9.54,0,20.5-3.51,20.5-30.89s-10.96-30.89-20.5-30.89h-2.47V309.62z"/>
		</g>
		<g>
			<path class="st2" d="M556.88,383.08h-2.35c-2.21,0-4-1.79-4-4V247.84h-16.97c-2.21,0-4-1.79-4-4v-1.96c0-2.21,1.79-4,4-4h44.3
				c2.21,0,4,1.79,4,4v1.96c0,2.21-1.79,4-4,4h-16.97v131.24C560.88,381.29,559.09,383.08,556.88,383.08z"/>
		</g>
		<g>
			<path class="st2" d="M630.18,383.08h-2.74c-1.32,0-2.56-0.65-3.3-1.75c-3.47-5.08-4.59-10.84-5-25.66l-0.59-17.82
				c-0.72-22.2-7.33-22.2-19.33-22.2h-2.47v63.42c0,2.21-1.79,4-4,4h-2.35c-2.21,0-4-1.79-4-4v-137.2c0-2.21,1.79-4,4-4h7.84
				c21.32,0,31.24,12.36,31.24,38.89c0,16.4-3.81,27.21-11.83,33.04c7.52,4.14,10.71,12.69,11.23,27.78l0.59,17.45
				c0,0.01,0,0.01,0,0.02c0.38,12.9,0.93,17.07,4.05,21.84c0.81,1.23,0.87,2.8,0.17,4.09C633,382.27,631.65,383.08,630.18,383.08z
				 M596.75,305.7h1.49c10.85,0,20.89-3.5,20.89-28.93s-10.04-28.93-20.89-28.93h-1.49V305.7z"/>
		</g>
		<g>
			<path class="st2" d="M660.95,383.08h-2.35c-2.21,0-4-1.79-4-4v-50.66l-21.44-85.56c-0.3-1.2-0.03-2.46,0.73-3.43
				c0.76-0.97,1.92-1.54,3.15-1.54h2.55c1.83,0,3.43,1.25,3.88,3.03L659.54,305c0,0.01,0,0.02,0.01,0.03
				c0.17,0.72,0.35,1.44,0.52,2.15c0.18-0.72,0.36-1.44,0.53-2.15l16.08-64.12c0.45-1.78,2.05-3.03,3.88-3.03h1.96
				c1.23,0,2.4,0.57,3.15,1.54c0.76,0.97,1.03,2.24,0.73,3.43l-21.44,85.56v50.66C664.95,381.29,663.16,383.08,660.95,383.08z"/>
		</g>
	</g>
</g>
<g id="Layer_6" class="st0">
	<g class="st1">
		<path class="st11" d="M380.08,350.9c-2.86,0-5.17-2.24-5.17-5v-11.53c0-2.76,2.31-5,5.17-5c2.86,0,5.17,2.24,5.17,5v11.53
			C385.25,348.67,382.94,350.9,380.08,350.9z"/>
	</g>
	<g class="st1">
		<path class="st11" d="M415.84,352.87c-2.82-0.44-4.77-3-4.35-5.73l1.76-11.4c0.42-2.73,3.05-4.59,5.87-4.15s4.77,3,4.35,5.73
			l-1.76,11.4C421.29,351.44,418.66,353.3,415.84,352.87z"/>
	</g>
	<g class="st1">
		<path class="st11" d="M441.23,354.2c-2.86,0-5.17-2.24-5.17-5v-11.53c0-2.76,2.31-5,5.17-5c2.86,0,5.17,2.24,5.17,5v11.53
			C446.4,351.96,444.09,354.2,441.23,354.2z"/>
	</g>
	<g class="st1">
		<path class="st11" d="M493.57,360.19c-2.86,0-5.17-2.24-5.17-5v-11.53c0-2.76,2.31-5,5.17-5c2.86,0,5.17,2.24,5.17,5v11.53
			C498.74,357.95,496.42,360.19,493.57,360.19z"/>
	</g>
	<g class="st1">
		<path class="st11" d="M555.7,368.05c-2.86,0-5.17-2.24-5.17-5v-11.53c0-2.76,2.31-5,5.17-5s5.17,2.24,5.17,5v11.53
			C560.87,365.82,558.56,368.05,555.7,368.05z"/>
	</g>
	<g class="st1">
		<path class="st11" d="M659.78,381.05c-2.86,0-5.17-2.24-5.17-5v-11.53c0-2.76,2.31-5,5.17-5s5.17,2.24,5.17,5v11.53
			C664.95,378.82,662.63,381.05,659.78,381.05z"/>
	</g>
	<g class="st1">
		<path class="st11" d="M626.55,377.74c-2.83,0.39-5.43-1.51-5.81-4.25l-1.58-11.43c-0.38-2.74,1.61-5.27,4.44-5.66
			s5.43,1.51,5.81,4.25l1.58,11.43C631.37,374.82,629.38,377.35,626.55,377.74z"/>
	</g>
	<g class="st1">
		<path class="st11" d="M591.56,376.45c-2.86,0-5.17-2.24-5.17-5v-11.53c0-2.76,2.31-5,5.17-5c2.86,0,5.17,2.24,5.17,5v11.53
			C596.73,374.21,594.42,376.45,591.56,376.45z"/>
	</g>
</g>
<g id="Layer_10" class="st0">
	<g class="st1">
		<g>
			<path class="st12" d="M405.55,320.83c0,0,0,2.35,0,6"/>
			<path class="st13" d="M405.55,337.92c0,5.49,0,11.48,0,16.65"/>
			<path class="st12" d="M405.55,360.11c0,2.56,0,4.66,0,6c2.01,0.06,4.01,0.09,6,0.07"/>
			<path class="st14" d="M422.63,365.02c10.7-2.44,19.3-9.58,21.64-29.1"/>
			<path class="st12" d="M444.75,330.36c0.1-1.9,0.16-3.9,0.16-6"/>
		</g>
	</g>
	<polyline class="st15" points="467.79,329.89 467.79,366.11 500.46,366.11 	"/>
	<line class="st15" x1="520.33" y1="334.43" x2="520.33" y2="366.7"/>
	<line class="st15" x1="582.36" y1="340.56" x2="582.36" y2="368.13"/>
	<line class="st15" x1="617.03" y1="343.76" x2="617.03" y2="368.64"/>
	<path class="st15" d="M653.23,356.64c0.45,3.63-1.09,12.06,5.82,18.94"/>
	<line class="st16" x1="686.85" y1="355.75" x2="686.85" y2="369.11"/>
</g>
<g id="Layer_2" class="st0">
	<path class="st8" d="M385.27,323.72v-75.88h1.29c14.62,0,27.75,4.79,27.75,62.64c0,6.21-0.15,11.81-0.44,16.86l10.3,1.3
		c0.33-5.56,0.49-11.61,0.49-18.16c0-52.92-10.33-72.6-38.1-72.6h-7.64c-2.21,0-4,1.79-4,4v80.53L385.27,323.72z"/>
	<path class="st8" d="M446.42,331.46v-21.29h23.24c2.21,0,4-1.79,4-4v-1.96c0-2.21-1.79-4-4-4h-23.24v-52.37h28.14
		c2.21,0,4-1.79,4-4v-1.96c0-2.21-1.79-4-4-4h-34.5c-2.21,0-4,1.79-4,4v88.27L446.42,331.46z"/>
	<path class="st8" d="M498.75,338.08v-18.5h2.47c20.47,0,30.85-13.74,30.85-40.85s-10.38-40.85-30.85-40.85h-8.82
		c-2.21,0-4,1.79-4,4v94.89L498.75,338.08z M498.75,247.84h2.47c9.54,0,20.5,3.51,20.5,30.89s-10.96,30.89-20.5,30.89h-2.47V247.84z
		"/>
	<path class="st8" d="M533.55,247.84h16.97v96.78l10.35,1.31v-98.09h16.97c2.21,0,4-1.79,4-4v-1.96c0-2.21-1.79-4-4-4h-44.3
		c-2.21,0-4,1.79-4,4v1.96C529.55,246.05,531.35,247.84,533.55,247.84z"/>
	<path class="st8" d="M596.75,350.47v-34.81h2.47c12,0,18.61,0,19.33,22.2l0.51,15.43l10.41,1.32l-0.57-17.02
		c-0.53-15.09-3.71-23.64-11.23-27.78c8.01-5.82,11.83-16.64,11.83-33.04c0-26.53-9.93-38.89-31.24-38.89h-7.84c-2.21,0-4,1.79-4,4
		v107.28L596.75,350.47z M596.75,247.84h1.49c10.85,0,20.89,3.5,20.89,28.93s-10.04,28.93-20.89,28.93h-1.49V247.84z"/>
	<path class="st8" d="M654.6,328.42v29.37l10.35,1.31v-30.68l21.44-85.56c0.3-1.2,0.03-2.46-0.73-3.43
		c-0.76-0.97-1.92-1.54-3.15-1.54h-1.96c-1.83,0-3.43,1.25-3.88,3.03l-16.08,64.12c-0.17,0.71-0.35,1.43-0.53,2.15
		c-0.17-0.71-0.34-1.43-0.52-2.15c0-0.01,0-0.02-0.01-0.03l-16.07-64.09c-0.45-1.78-2.05-3.03-3.88-3.03h-2.55
		c-1.23,0-2.4,0.57-3.15,1.54c-0.76,0.97-1.03,2.24-0.73,3.43L654.6,328.42z"/>
</g>
<g id="Layer_2_copy" class="st0">
	<path class="st8" d="M411.92,310.75v-75.88h1.29c14.62,0,27.75,4.79,27.75,62.64c0,6.21-0.15,11.81-0.44,16.86l10.3,1.3
		c0.33-5.56,0.49-11.61,0.49-18.16c0-52.92-10.33-72.6-38.1-72.6h-7.64c-2.21,0-4,1.79-4,4v80.53L411.92,310.75z"/>
	<path class="st8" d="M473.08,318.48V297.2h23.24c2.21,0,4-1.79,4-4v-1.96c0-2.21-1.79-4-4-4h-23.24v-52.37h28.14c2.21,0,4-1.79,4-4
		v-1.96c0-2.21-1.79-4-4-4h-34.5c-2.21,0-4,1.79-4,4v88.27L473.08,318.48z"/>
	<path class="st8" d="M525.41,325.1v-18.5h2.47c20.47,0,30.85-13.74,30.85-40.85s-10.38-40.85-30.85-40.85h-8.82c-2.21,0-4,1.79-4,4
		v94.89L525.41,325.1z M525.41,234.87h2.47c9.54,0,20.5,3.51,20.5,30.89s-10.96,30.89-20.5,30.89h-2.47V234.87z"/>
	<path class="st8" d="M560.21,234.87h16.97v96.78l10.35,1.31v-98.09h16.97c2.21,0,4-1.79,4-4v-1.96c0-2.21-1.79-4-4-4h-44.3
		c-2.21,0-4,1.79-4,4v1.96C556.21,233.08,558,234.87,560.21,234.87z"/>
	<path class="st8" d="M623.4,337.5v-34.81h2.47c12,0,18.61,0,19.33,22.2l0.51,15.43l10.41,1.32l-0.57-17.02
		c-0.53-15.09-3.71-23.64-11.23-27.78c8.01-5.82,11.83-16.64,11.83-33.04c0-26.53-9.93-38.89-31.24-38.89h-7.84c-2.21,0-4,1.79-4,4
		v107.28L623.4,337.5z M623.4,234.87h1.49c10.85,0,20.89,3.5,20.89,28.93s-10.04,28.93-20.89,28.93h-1.49V234.87z"/>
	<path class="st8" d="M681.26,315.44v29.37l10.35,1.31v-30.68l21.44-85.56c0.3-1.2,0.03-2.46-0.73-3.43
		c-0.76-0.97-1.92-1.54-3.15-1.54h-1.96c-1.83,0-3.43,1.25-3.88,3.03l-16.08,64.12c-0.17,0.71-0.35,1.43-0.53,2.15
		c-0.17-0.71-0.34-1.43-0.52-2.15c0-0.01,0-0.02-0.01-0.03l-16.07-64.09c-0.45-1.78-2.05-3.03-3.88-3.03h-2.55
		c-1.23,0-2.4,0.57-3.15,1.54c-0.76,0.97-1.03,2.24-0.73,3.43L681.26,315.44z"/>
</g>
<g id="Layer_9" class="st0">
	<g class="st1">
		<path class="st3" d="M380.08,338.93c-2.86,0-5.17-2.24-5.17-5v-11.53c0-2.76,2.31-5,5.17-5c2.86,0,5.17,2.24,5.17,5v11.53
			C385.25,336.69,382.94,338.93,380.08,338.93z"/>
	</g>
	<g class="st1">
		<path class="st3" d="M418.55,340.25c-2.85-0.12-5.08-2.45-4.96-5.21l0.47-11.52c0.11-2.76,2.52-4.9,5.37-4.79
			c2.85,0.12,5.08,2.45,4.96,5.21l-0.47,11.52C423.8,338.22,421.4,340.36,418.55,340.25z"/>
	</g>
	<g class="st1">
		<path class="st3" d="M441.23,342.22c-2.86,0-5.17-2.24-5.17-5v-11.53c0-2.76,2.31-5,5.17-5c2.86,0,5.17,2.24,5.17,5v11.53
			C446.4,339.99,444.09,342.22,441.23,342.22z"/>
	</g>
	<g class="st1">
		<path class="st3" d="M493.57,348.21c-2.86,0-5.17-2.24-5.17-5v-11.53c0-2.76,2.31-5,5.17-5c2.86,0,5.17,2.24,5.17,5v11.53
			C498.74,345.97,496.42,348.21,493.57,348.21z"/>
	</g>
	<g class="st1">
		<path class="st3" d="M555.7,356.08c-2.86,0-5.17-2.24-5.17-5v-11.53c0-2.76,2.31-5,5.17-5s5.17,2.24,5.17,5v11.53
			C560.87,353.84,558.56,356.08,555.7,356.08z"/>
	</g>
	<g class="st1">
		<path class="st3" d="M659.78,369.08c-2.86,0-5.17-2.24-5.17-5v-11.53c0-2.76,2.31-5,5.17-5s5.17,2.24,5.17,5v11.53
			C664.95,366.84,662.63,369.08,659.78,369.08z"/>
	</g>
	<g class="st1">
		<path class="st3" d="M624.3,367.47c-2.86,0-5.17-2.24-5.17-5v-11.53c0-2.76,2.31-5,5.17-5c2.86,0,5.17,2.24,5.17,5v11.53
			C629.47,365.23,627.15,367.47,624.3,367.47z"/>
	</g>
	<g class="st1">
		<path class="st3" d="M591.56,364.48c-2.86,0-5.17-2.24-5.17-5v-11.53c0-2.76,2.31-5,5.17-5c2.86,0,5.17,2.24,5.17,5v11.53
			C596.73,362.24,594.42,364.48,591.56,364.48z"/>
	</g>
</g>
<g id="Layer_4" class="st0">
	<g class="st1">
		<defs>
			<rect x="410.2" y="234.26" width="461.6" height="189.73"/>
			<text id="SVGID_1_" transform="matrix(1 0 0 1 410.2001 368.7354)" class="st9 st10">Deptry</text>
		</defs>
		<clipPath id="SVGID_00000041974856380647297690000005874889157100570800_">
			<use xlink:href="#SVGID_1_"  style="overflow:visible;"/>
		</clipPath>
		<polygon style="clip-path:url(#SVGID_00000041974856380647297690000005874889157100570800_);fill:#2ABFD8;" points="396.5,310.48
			817.4,368.38 817.4,463.89 378.2,463.89 		"/>
	</g>
	<g class="st1">
		<path class="st2" d="M-954.41,641.63h-88.7c-11.11,0-20.15-9.78-20.15-21.8v-17.48c0-2.89,2.16-5.23,4.83-5.23
			s4.83,2.34,4.83,5.23v17.48c0,6.25,4.7,11.33,10.48,11.33h88.7c2.67,0,4.83,2.34,4.83,5.23
			C-949.58,639.29-951.74,641.63-954.41,641.63z"/>
	</g>
	<g class="st1">
		<path class="st11" d="M-954.41,641.63h-88.7c-11.11,0-20.15-9.6-20.15-21.39c0-2.89,2.16-5.23,4.83-5.23s4.83,2.34,4.83,5.23
			c0,6.03,4.7,10.93,10.48,10.93h88.7c2.67,0,4.83,2.34,4.83,5.23C-949.58,639.29-951.74,641.63-954.41,641.63z"/>
	</g>
	<g class="st1">
		<g>
			<path class="st11" d="M-1039.13,647.98c-2.08,0-3.76-1.56-3.76-3.49v-5.23c0-1.93,1.69-3.49,3.76-3.49
				c2.08,0,3.76,1.56,3.76,3.49v5.23C-1035.36,646.42-1037.05,647.98-1039.13,647.98z"/>
		</g>
		<path class="st11" d="M-1038.78,669.37c-1.76,0-3.33-1.14-3.69-2.8c-0.28-1.29-0.42-2.62-0.42-3.95v-7.42
			c0-1.93,1.69-3.49,3.76-3.49c2.08,0,3.76,1.56,3.76,3.49v7.42c0,0.87,0.09,1.73,0.28,2.57c0.41,1.89-0.91,3.73-2.95,4.11
			C-1038.29,669.34-1038.54,669.37-1038.78,669.37z"/>
	</g>
	<g class="st1">
		<path class="st3" d="M-955.22,729.69h-47.12c-11.11,0-20.15-9.78-20.15-21.8v-26.21c0-2.89,2.16-5.23,4.83-5.23
			c2.67,0,4.83,2.34,4.83,5.23v26.21c0,6.25,4.7,11.33,10.48,11.33h47.12c2.67,0,4.83,2.34,4.83,5.23
			C-950.38,727.35-952.55,729.69-955.22,729.69z"/>
	</g>
	<path class="st18" d="M-919.01,646.92h-6.33c-4.12,0-7.47-3.34-7.47-7.47v-6.33c0-4.12,3.34-7.47,7.47-7.47h6.33
		c4.12,0,7.47,3.34,7.47,7.47v6.33C-911.54,643.58-914.88,646.92-919.01,646.92z"/>
	<g class="st1">
		<path class="st19" d="M-919.01,687.39h-6.33c-4.12,0-7.47-3.34-7.47-7.47v-6.33c0-4.12,3.34-7.47,7.47-7.47h6.33
			c4.12,0,7.47,3.34,7.47,7.47v6.33C-911.54,684.05-914.88,687.39-919.01,687.39C-919.01,687.39-914.88,687.39-919.01,687.39z"/>
	</g>
	<path class="st20" d="M-919.01,727.86h-6.33c-4.12,0-7.47-3.34-7.47-7.47v-6.33c0-4.12,3.34-7.47,7.47-7.47h6.33
		c4.12,0,7.47,3.34,7.47,7.47v6.33C-911.54,724.51-914.88,727.86-919.01,727.86z"/>
	<path class="st21" d="M-1055.04,584.27h-6.33c-4.12,0-7.47-3.34-7.47-7.47v-6.33c0-4.12,3.34-7.47,7.47-7.47h6.33
		c4.12,0,7.47,3.34,7.47,7.47v6.33C-1047.57,580.93-1050.91,584.27-1055.04,584.27z"/>
	<g class="st1">
		<g>
			<path class="st3" d="M-969.16,682.67h-9.89c-1.78,0-3.22-1.56-3.22-3.49s1.44-3.49,3.22-3.49h9.89c1.78,0,3.22,1.56,3.22,3.49
				S-967.38,682.67-969.16,682.67z M-988.94,682.67h-9.89c-1.78,0-3.22-1.56-3.22-3.49s1.44-3.49,3.22-3.49h9.89
				c1.78,0,3.22,1.56,3.22,3.49S-987.16,682.67-988.94,682.67z M-1008.73,682.67h-9.89c-1.78,0-3.22-1.56-3.22-3.49
				s1.44-3.49,3.22-3.49h9.89c1.78,0,3.22,1.56,3.22,3.49S-1006.95,682.67-1008.73,682.67z M-1028.51,682.62
				c-0.09,0-0.17,0-0.26-0.01c-4.03-0.35-7.77-2.08-10.82-5.01c-1.33-1.28-1.45-3.48-0.27-4.92c1.18-1.44,3.22-1.57,4.55-0.29
				c1.99,1.91,4.42,3.04,7.05,3.27c1.77,0.15,3.1,1.83,2.96,3.75C-1025.43,681.23-1026.84,682.62-1028.51,682.62z"/>
		</g>
		<g>
			<path class="st3" d="M-954.41,682.67h-4.83c-1.78,0-3.22-1.56-3.22-3.49s1.44-3.49,3.22-3.49h4.83c1.78,0,3.22,1.56,3.22,3.49
				S-952.63,682.67-954.41,682.67z"/>
		</g>
	</g>
	<rect x="-829.58" y="584.32" class="st7" width="461.6" height="189.73"/>
	<text transform="matrix(1 0 0 1 -829.5791 718.792)" class="st8 st9 st10">Deptry</text>
	<g class="st1">
		<defs>
			<rect x="-829.58" y="584.32" width="461.6" height="189.73"/>

				<text id="SVGID_00000163787226678235518860000012684524750894619553_" transform="matrix(1 0 0 1 -829.5791 718.792)" class="st9 st10">Deptry</text>
		</defs>
		<clipPath id="SVGID_00000102544502888048707190000012266463164629402289_">
			<use xlink:href="#SVGID_00000163787226678235518860000012684524750894619553_"  style="overflow:visible;"/>
		</clipPath>
		<polygon style="clip-path:url(#SVGID_00000102544502888048707190000012266463164629402289_);fill:#2ABFD8;" points="
			-843.28,660.54 -422.38,718.43 -422.38,813.95 -861.58,813.95 		"/>
	</g>
</g>
<g id="Layer_3" class="st0">
	<g class="st1">
		<path class="st3" d="M384.72,383.08h-7.64c-2.21,0-4-1.79-4-4v-137.2c0-2.21,1.79-4,4-4h7.64c27.78,0,38.1,19.68,38.1,72.6
			C422.82,363.4,412.49,383.08,384.72,383.08z M383.43,373.12h1.29c14.62,0,27.75-4.79,27.75-62.64c0-57.85-13.13-62.64-27.75-62.64
			h-1.29V373.12z"/>
	</g>
	<g class="st1">
		<path class="st3" d="M472.72,383.08h-34.5c-2.21,0-4-1.79-4-4v-137.2c0-2.21,1.79-4,4-4h34.5c2.21,0,4,1.79,4,4v1.96
			c0,2.21-1.79,4-4,4h-28.14v52.37h23.24c2.21,0,4,1.79,4,4v1.96c0,2.21-1.79,4-4,4h-23.24v62.95h28.14c2.21,0,4,1.79,4,4v1.96
			C476.72,381.29,474.93,383.08,472.72,383.08z"/>
	</g>
	<g class="st1">
		<path class="st3" d="M491.93,383.08h-1.37c-2.21,0-4-1.79-4-4v-137.2c0-2.21,1.79-4,4-4h8.82c20.47,0,30.85,13.74,30.85,40.85
			s-10.38,40.85-30.85,40.85h-2.47v58.52c0,1.06-0.42,2.08-1.17,2.83l-0.98,0.98C494.01,382.66,492.99,383.08,491.93,383.08z
			 M496.91,309.62h2.47c9.54,0,20.5-3.51,20.5-30.89s-10.96-30.89-20.5-30.89h-2.47V309.62z"/>
	</g>
	<g class="st1">
		<path class="st3" d="M555.04,383.08h-2.35c-2.21,0-4-1.79-4-4V247.84h-16.97c-2.21,0-4-1.79-4-4v-1.96c0-2.21,1.79-4,4-4h44.3
			c2.21,0,4,1.79,4,4v1.96c0,2.21-1.79,4-4,4h-16.97v131.24C559.04,381.29,557.25,383.08,555.04,383.08z"/>
	</g>
	<g class="st1">
		<path class="st3" d="M628.34,383.08h-2.74c-1.32,0-2.56-0.65-3.3-1.75c-3.47-5.08-4.59-10.84-5-25.66l-0.59-17.82
			c-0.72-22.2-7.33-22.2-19.33-22.2h-2.47v63.42c0,2.21-1.79,4-4,4h-2.35c-2.21,0-4-1.79-4-4v-137.2c0-2.21,1.79-4,4-4h7.84
			c21.32,0,31.24,12.36,31.24,38.89c0,16.4-3.81,27.21-11.83,33.04c7.52,4.14,10.71,12.69,11.23,27.78l0.59,17.45
			c0,0.01,0,0.01,0,0.02c0.38,12.9,0.93,17.07,4.05,21.84c0.81,1.23,0.87,2.8,0.17,4.09C631.16,382.27,629.81,383.08,628.34,383.08z
			 M594.91,305.7h1.49c10.85,0,20.89-3.5,20.89-28.93s-10.04-28.93-20.89-28.93h-1.49V305.7z"/>
	</g>
	<g class="st1">
		<path class="st3" d="M659.11,383.08h-2.35c-2.21,0-4-1.79-4-4v-50.66l-21.44-85.56c-0.3-1.2-0.03-2.46,0.73-3.43
			c0.76-0.97,1.92-1.54,3.15-1.54h2.55c1.83,0,3.43,1.25,3.88,3.03L657.7,305c0,0.01,0,0.02,0.01,0.03
			c0.17,0.72,0.35,1.44,0.52,2.15c0.18-0.72,0.36-1.44,0.53-2.15l16.08-64.12c0.45-1.78,2.05-3.03,3.88-3.03h1.96
			c1.23,0,2.4,0.57,3.15,1.54c0.76,0.97,1.03,2.24,0.73,3.43l-21.44,85.56v50.66C663.11,381.29,661.32,383.08,659.11,383.08z"/>
	</g>
</g>
</svg>
